<svg width="208" height="47" viewBox="0 0 208 47" fill="none" xmlns="http://www.w3.org/2000/svg">
<path d="M21.8177 34.464C21.2417 34.976 20.2977 35.456 18.9857 35.904C17.7057 36.32 16.5057 36.528 15.3857 36.528C12.4097 36.528 9.76969 35.76 7.46569 34.224C5.16169 32.688 4.00969 30.368 4.00969 27.264V20.544H0.409688V13.68H4.00969V7.392L12.7457 6.192V13.68H18.3617L19.1777 20.544H12.7457V26.304C12.7457 27.264 13.0177 28.032 13.5617 28.608C14.1377 29.152 14.9377 29.424 15.9617 29.424C16.3777 29.424 16.9057 29.36 17.5457 29.232C18.1857 29.072 18.7777 28.832 19.3217 28.512L21.8177 34.464ZM29.4891 9.552C28.2091 9.552 27.1051 9.088 26.1771 8.16C25.2491 7.232 24.7851 6.128 24.7851 4.848C24.7851 3.536 25.2491 2.416 26.1771 1.488C27.1051 0.527999 28.2091 0.0479994 29.4891 0.0479994C30.8011 0.0479994 31.9211 0.527999 32.8491 1.488C33.8091 2.416 34.2891 3.536 34.2891 4.848C34.2891 6.128 33.8091 7.232 32.8491 8.16C31.9211 9.088 30.8011 9.552 29.4891 9.552ZM25.1691 36V12.72H33.9051V36H25.1691ZM56.4534 20.256C55.5254 19.776 54.7254 19.456 54.0534 19.296C53.3814 19.104 52.6294 19.008 51.7974 19.008C50.6134 19.008 49.5574 19.488 48.6294 20.448C47.7014 21.408 47.2374 22.72 47.2374 24.384C47.2374 26.016 47.7014 27.264 48.6294 28.128C49.5574 28.992 50.6134 29.424 51.7974 29.424C52.5654 29.424 53.3014 29.344 54.0054 29.184C54.7094 28.992 55.5254 28.656 56.4534 28.176L58.9014 34.176C57.5574 35.232 56.1334 35.888 54.6294 36.144C53.1254 36.4 51.8934 36.528 50.9334 36.528C47.1574 36.528 44.0854 35.488 41.7174 33.408C39.3814 31.296 38.2134 28.288 38.2134 24.384C38.2134 20.48 39.3814 17.424 41.7174 15.216C44.0854 13.008 47.1574 11.904 50.9334 11.904C51.8934 11.904 53.1254 12.032 54.6294 12.288C56.1334 12.544 57.5574 13.2 58.9014 14.256L56.4534 20.256ZM71.7801 28.512V36H63.0441V2.64L71.7801 2.112V19.392L80.4681 12.048L85.7001 18.048L79.2681 22.896L87.3801 36H77.9721L73.2201 27.456L71.7801 28.512ZM88.8384 24.384C88.8384 20.48 90.0384 17.424 92.4384 15.216C94.8704 13.008 97.8464 11.904 101.366 11.904C105.078 11.904 107.862 13.104 109.718 15.504C111.574 17.904 112.502 20.736 112.502 24V27.024H98.3424C98.7264 27.92 99.3024 28.56 100.07 28.944C100.87 29.328 101.814 29.52 102.902 29.52C103.926 29.52 104.966 29.424 106.022 29.232C107.11 29.04 108.102 28.72 108.998 28.272L111.446 34.176C110.102 35.168 108.438 35.808 106.454 36.096C104.47 36.384 102.998 36.528 102.038 36.528C98.2624 36.528 95.1104 35.568 92.5824 33.648C90.0864 31.696 88.8384 28.608 88.8384 24.384ZM104.15 21.744C104.118 21.232 103.878 20.64 103.43 19.968C102.982 19.264 102.214 18.912 101.126 18.912C100.326 18.912 99.6704 19.168 99.1584 19.68C98.6784 20.16 98.3264 20.848 98.1024 21.744H104.15ZM135.818 34.464C135.242 34.976 134.298 35.456 132.986 35.904C131.706 36.32 130.506 36.528 129.386 36.528C126.41 36.528 123.77 35.76 121.466 34.224C119.162 32.688 118.01 30.368 118.01 27.264V20.544H114.41V13.68H118.01V7.392L126.746 6.192V13.68H132.362L133.178 20.544H126.746V26.304C126.746 27.264 127.018 28.032 127.562 28.608C128.138 29.152 128.938 29.424 129.962 29.424C130.378 29.424 130.906 29.36 131.546 29.232C132.186 29.072 132.778 28.832 133.322 28.512L135.818 34.464ZM143.489 9.552C142.209 9.552 141.105 9.088 140.177 8.16C139.249 7.232 138.785 6.128 138.785 4.848C138.785 3.536 139.249 2.416 140.177 1.488C141.105 0.527999 142.209 0.0479994 143.489 0.0479994C144.801 0.0479994 145.921 0.527999 146.849 1.488C147.809 2.416 148.289 3.536 148.289 4.848C148.289 6.128 147.809 7.232 146.849 8.16C145.921 9.088 144.801 9.552 143.489 9.552ZM139.169 36V12.72H147.905V36H139.169ZM159.845 14.784C160.837 14.208 162.149 13.584 163.781 12.912C165.413 12.24 167.205 11.904 169.157 11.904C172.453 11.904 174.805 12.832 176.213 14.688C177.621 16.512 178.325 18.816 178.325 21.6V36H169.589V21.792C169.589 20.896 169.317 20.208 168.773 19.728C168.229 19.248 167.557 19.008 166.757 19.008C166.213 19.008 165.525 19.152 164.693 19.44C163.861 19.728 163.093 20.032 162.389 20.352V36H153.653V12.768H158.021L159.845 14.784ZM198.439 28.752V20.496C197.991 20.08 197.415 19.728 196.711 19.44C196.039 19.152 195.415 19.008 194.839 19.008C193.527 19.008 192.583 19.6 192.007 20.784C191.463 21.936 191.191 23.088 191.191 24.24C191.191 25.616 191.559 26.832 192.295 27.888C193.063 28.912 194.151 29.424 195.559 29.424C195.911 29.424 196.375 29.36 196.951 29.232C197.527 29.104 198.023 28.944 198.439 28.752ZM207.175 12.768V36.24C207.175 39.6 206.055 42.144 203.815 43.872C201.607 45.632 198.455 46.512 194.359 46.512C193.367 46.512 191.879 46.304 189.895 45.888C187.911 45.504 186.167 44.816 184.663 43.824L187.303 37.68C188.871 38.448 190.167 38.928 191.191 39.12C192.247 39.344 193.255 39.456 194.215 39.456C195.207 39.456 196.151 39.264 197.047 38.88C197.975 38.496 198.439 37.936 198.439 37.2V35.52C197.767 35.808 197.015 36.048 196.183 36.24C195.351 36.432 194.407 36.528 193.351 36.528C189.607 36.528 186.807 35.376 184.951 33.072C183.095 30.768 182.167 27.888 182.167 24.432C182.167 20.944 183.079 17.984 184.903 15.552C186.759 13.12 189.735 11.904 193.831 11.904C195.143 11.904 196.455 12.192 197.767 12.768C199.111 13.312 200.295 13.952 201.319 14.688L202.807 12.768H207.175Z" fill="#DC3644"/>
</svg>
