<svg width="105" height="24" viewBox="0 0 105 24" fill="none" xmlns="http://www.w3.org/2000/svg">
<path d="M11.4088 17.232C11.1208 17.488 10.6488 17.728 9.99284 17.952C9.35284 18.16 8.75284 18.264 8.19284 18.264C6.70484 18.264 5.38484 17.88 4.23284 17.112C3.08084 16.344 2.50484 15.184 2.50484 13.632V10.272H0.704844V6.84H2.50484V3.696L6.87284 3.096V6.84H9.68084L10.0888 10.272H6.87284V13.152C6.87284 13.632 7.00884 14.016 7.28084 14.304C7.56884 14.576 7.96884 14.712 8.48084 14.712C8.68884 14.712 8.95284 14.68 9.27284 14.616C9.59284 14.536 9.88884 14.416 10.1608 14.256L11.4088 17.232ZM15.2445 4.776C14.6045 4.776 14.0525 4.544 13.5885 4.08C13.1245 3.616 12.8925 3.064 12.8925 2.424C12.8925 1.768 13.1245 1.208 13.5885 0.743999C14.0525 0.263999 14.6045 0.0239997 15.2445 0.0239997C15.9005 0.0239997 16.4605 0.263999 16.9245 0.743999C17.4045 1.208 17.6445 1.768 17.6445 2.424C17.6445 3.064 17.4045 3.616 16.9245 4.08C16.4605 4.544 15.9005 4.776 15.2445 4.776ZM13.0845 18V6.36H17.4525V18H13.0845ZM28.7267 10.128C28.2627 9.888 27.8627 9.728 27.5267 9.648C27.1907 9.552 26.8147 9.504 26.3987 9.504C25.8067 9.504 25.2787 9.744 24.8147 10.224C24.3507 10.704 24.1187 11.36 24.1187 12.192C24.1187 13.008 24.3507 13.632 24.8147 14.064C25.2787 14.496 25.8067 14.712 26.3987 14.712C26.7827 14.712 27.1507 14.672 27.5027 14.592C27.8547 14.496 28.2627 14.328 28.7267 14.088L29.9507 17.088C29.2787 17.616 28.5667 17.944 27.8147 18.072C27.0627 18.2 26.4467 18.264 25.9667 18.264C24.0787 18.264 22.5427 17.744 21.3587 16.704C20.1907 15.648 19.6067 14.144 19.6067 12.192C19.6067 10.24 20.1907 8.712 21.3587 7.608C22.5427 6.504 24.0787 5.952 25.9667 5.952C26.4467 5.952 27.0627 6.016 27.8147 6.144C28.5667 6.272 29.2787 6.6 29.9507 7.128L28.7267 10.128ZM36.39 14.256V18H32.022V1.32L36.39 1.056V9.696L40.734 6.024L43.35 9.024L40.134 11.448L44.19 18H39.486L37.11 13.728L36.39 14.256ZM44.9192 12.192C44.9192 10.24 45.5192 8.712 46.7192 7.608C47.9352 6.504 49.4232 5.952 51.1832 5.952C53.0392 5.952 54.4312 6.552 55.3592 7.752C56.2872 8.952 56.7512 10.368 56.7512 12V13.512H49.6712C49.8632 13.96 50.1512 14.28 50.5352 14.472C50.9352 14.664 51.4072 14.76 51.9512 14.76C52.4632 14.76 52.9832 14.712 53.5112 14.616C54.0552 14.52 54.5512 14.36 54.9992 14.136L56.2232 17.088C55.5512 17.584 54.7192 17.904 53.7272 18.048C52.7352 18.192 51.9992 18.264 51.5192 18.264C49.6312 18.264 48.0552 17.784 46.7912 16.824C45.5432 15.848 44.9192 14.304 44.9192 12.192ZM52.5752 10.872C52.5592 10.616 52.4392 10.32 52.2152 9.984C51.9912 9.632 51.6072 9.456 51.0632 9.456C50.6632 9.456 50.3352 9.584 50.0792 9.84C49.8392 10.08 49.6632 10.424 49.5512 10.872H52.5752ZM68.4088 17.232C68.1208 17.488 67.6488 17.728 66.9928 17.952C66.3528 18.16 65.7528 18.264 65.1928 18.264C63.7048 18.264 62.3848 17.88 61.2328 17.112C60.0808 16.344 59.5048 15.184 59.5048 13.632V10.272H57.7048V6.84H59.5048V3.696L63.8728 3.096V6.84H66.6808L67.0888 10.272H63.8728V13.152C63.8728 13.632 64.0088 14.016 64.2808 14.304C64.5688 14.576 64.9688 14.712 65.4808 14.712C65.6888 14.712 65.9528 14.68 66.2728 14.616C66.5928 14.536 66.8888 14.416 67.1608 14.256L68.4088 17.232ZM72.2445 4.776C71.6045 4.776 71.0525 4.544 70.5885 4.08C70.1245 3.616 69.8925 3.064 69.8925 2.424C69.8925 1.768 70.1245 1.208 70.5885 0.743999C71.0525 0.263999 71.6045 0.0239997 72.2445 0.0239997C72.9005 0.0239997 73.4605 0.263999 73.9245 0.743999C74.4045 1.208 74.6445 1.768 74.6445 2.424C74.6445 3.064 74.4045 3.616 73.9245 4.08C73.4605 4.544 72.9005 4.776 72.2445 4.776ZM70.0845 18V6.36H74.4525V18H70.0845ZM80.4227 7.392C80.9187 7.104 81.5747 6.792 82.3907 6.456C83.2067 6.12 84.1027 5.952 85.0787 5.952C86.7267 5.952 87.9027 6.416 88.6067 7.344C89.3107 8.256 89.6627 9.408 89.6627 10.8V18H85.2947V10.896C85.2947 10.448 85.1587 10.104 84.8867 9.864C84.6147 9.624 84.2787 9.504 83.8787 9.504C83.6067 9.504 83.2627 9.576 82.8467 9.72C82.4307 9.864 82.0467 10.016 81.6947 10.176V18H77.3267V6.384H79.5107L80.4227 7.392ZM99.7193 14.376V10.248C99.4953 10.04 99.2073 9.864 98.8553 9.72C98.5193 9.576 98.2073 9.504 97.9193 9.504C97.2633 9.504 96.7913 9.8 96.5033 10.392C96.2313 10.968 96.0953 11.544 96.0953 12.12C96.0953 12.808 96.2793 13.416 96.6473 13.944C97.0313 14.456 97.5753 14.712 98.2793 14.712C98.4553 14.712 98.6873 14.68 98.9753 14.616C99.2633 14.552 99.5113 14.472 99.7193 14.376ZM104.087 6.384V18.12C104.087 19.8 103.527 21.072 102.407 21.936C101.303 22.816 99.7273 23.256 97.6793 23.256C97.1833 23.256 96.4393 23.152 95.4473 22.944C94.4553 22.752 93.5833 22.408 92.8313 21.912L94.1513 18.84C94.9353 19.224 95.5833 19.464 96.0953 19.56C96.6233 19.672 97.1273 19.728 97.6073 19.728C98.1033 19.728 98.5753 19.632 99.0233 19.44C99.4873 19.248 99.7193 18.968 99.7193 18.6V17.76C99.3833 17.904 99.0073 18.024 98.5913 18.12C98.1753 18.216 97.7033 18.264 97.1753 18.264C95.3033 18.264 93.9033 17.688 92.9753 16.536C92.0473 15.384 91.5833 13.944 91.5833 12.216C91.5833 10.472 92.0393 8.992 92.9513 7.776C93.8793 6.56 95.3673 5.952 97.4153 5.952C98.0713 5.952 98.7273 6.096 99.3833 6.384C100.055 6.656 100.647 6.976 101.159 7.344L101.903 6.384H104.087Z" fill="#DC3644"/>
</svg>
